<?xml version="1.0" encoding="utf-8"?>
<!-- Generator: Adobe Illustrator 25.4.1, SVG Export Plug-In . SVG Version: 6.00 Build 0)  -->
<svg version="1.1" id="Layer_1" xmlns="http://www.w3.org/2000/svg" xmlns:xlink="http://www.w3.org/1999/xlink" x="0px" y="0px"
	 viewBox="0 0 207.7 181.2" style="enable-background:new 0 0 207.7 181.2;" xml:space="preserve">
<style type="text/css">
	.st0{fill:none;stroke:#FFFFFF;stroke-width:5;stroke-miterlimit:10;}
	.st1{fill:#FFFFFF;}
</style>
<g>
	<polyline class="st0" points="105.8,138.4 136,120.4 156.5,108.2 156.5,181.2 	"/>
	<path class="st0" d="M136,120.4"/>
</g>
<g>
	<path class="st1" d="M4.7,150.4H0v-26.2h4.7V150.4z"/>
	<path class="st1" d="M22.1,150.4v-20.1v-0.4c0-0.3-0.1-0.5-0.3-0.7c-0.2-0.2-0.4-0.3-0.6-0.3H16v21.5h-4.7v-26.2h9.9
		c1.6,0,2.9,0.6,4,1.7c1.1,1.1,1.6,2.5,1.6,4v0.4v20.1H22.1z"/>
	<path class="st1" d="M46.7,143h-8.6v7.4h-4.7v-26.2H49v4.7H38.1v9.6h8.6V143z"/>
	<path class="st1" d="M55.5,150.4v-26.2h9.9c1.6,0,2.9,0.6,4,1.7c1.1,1.1,1.6,2.5,1.6,4v7.6c0,1.5-0.4,2.6-1.1,3.3
		c0.8,0.7,1.1,1.8,1.1,3.3v0.6v5.7h-4.7V144c0-0.3-0.1-0.5-0.3-0.7c-0.2-0.2-0.4-0.3-0.7-0.3h-5.1v7.4H55.5z M66.4,137.4v-7.6
		c0-0.3-0.1-0.5-0.3-0.7c-0.2-0.2-0.4-0.3-0.6-0.3h-5.2v9.6h5.1c0.3,0,0.5-0.1,0.7-0.3C66.3,138,66.4,137.7,66.4,137.4z"/>
	<path class="st1" d="M82.4,143v7.4h-4.7v-20.5c0-1.6,0.6-2.9,1.7-4c1.1-1.1,2.5-1.7,4-1.7h4.2c1.6,0,2.9,0.6,4,1.7
		c1.1,1.1,1.6,2.5,1.6,4v0.4v20.1h-4.7V143H82.4z M88.5,138.5v-8.2v-0.4c0-0.3-0.1-0.5-0.3-0.7c-0.2-0.2-0.4-0.3-0.6-0.3h-4.2
		c-0.3,0-0.5,0.1-0.7,0.3c-0.2,0.2-0.3,0.4-0.3,0.7v8.6H88.5z"/>
</g>
<g>
	<path class="st1" d="M44.3,181.2V155h9.9c1.6,0,2.9,0.6,4,1.7c1.1,1.1,1.6,2.5,1.6,4v7.6c0,1.6-0.5,2.9-1.6,3.9
		c-1.1,1.1-2.5,1.6-4.1,1.6H49v7.4H44.3z M55.1,168.3v-7.6c0-0.3-0.1-0.5-0.3-0.7c-0.2-0.2-0.4-0.3-0.6-0.3H49v9.6h5.1
		c0.3,0,0.5-0.1,0.7-0.3C55,168.8,55.1,168.5,55.1,168.3z"/>
	<path class="st1" d="M72.1,181.2c-1.6,0-2.9-0.6-4-1.7c-1.1-1.1-1.7-2.5-1.7-4v-14.8c0-1.6,0.6-2.9,1.7-4c1.1-1.1,2.5-1.7,4-1.7
		h4.2c1.6,0,2.9,0.6,4,1.7c1.1,1.1,1.6,2.5,1.6,4v0.4v9.4v4.9c0,1.6-0.6,2.9-1.7,4c-1.1,1.1-2.5,1.7-4,1.7H72.1z M77.2,167.8v-6.7
		v-0.4c0-0.3-0.1-0.5-0.3-0.7c-0.2-0.2-0.4-0.3-0.6-0.3h-4.2c-0.3,0-0.5,0.1-0.7,0.3c-0.2,0.2-0.3,0.4-0.3,0.7v14.8
		c0,0.3,0.1,0.5,0.3,0.7c0.2,0.2,0.4,0.3,0.7,0.3h4.1c0.3,0,0.5-0.1,0.7-0.3c0.2-0.2,0.3-0.4,0.3-0.7V167.8z"/>
	<path class="st1" d="M93.2,181.2h-4.7V155h4.7V181.2z"/>
	<path class="st1" d="M110.6,181.2v-20.1v-0.4c0-0.3-0.1-0.5-0.3-0.7c-0.2-0.2-0.4-0.3-0.6-0.3h-5.2v21.5h-4.7V155h9.9
		c1.6,0,2.9,0.6,4,1.7c1.1,1.1,1.6,2.5,1.6,4v0.4v20.1H110.6z"/>
	<path class="st1" d="M137,159.7h-5.4v21.5h-4.7v-21.5h-5.4V155H137V159.7z"/>
</g>
<g>
	<polyline class="st0" points="179.7,181.2 179.7,57.2 159.2,69.5 129,87.5 129,125.1 	"/>
	<path class="st0" d="M159.2,69.5"/>
</g>
<g>
	<polyline class="st0" points="205,181.2 205,5.2 184.5,17.4 154.3,35.4 154.3,73 	"/>
	<path class="st0" d="M184.5,17.4"/>
</g>
</svg>
