<?xml version="1.0" encoding="utf-8"?>
<!-- Generator: Adobe Illustrator 25.4.1, SVG Export Plug-In . SVG Version: 6.00 Build 0)  -->
<svg version="1.1" xmlns="http://www.w3.org/2000/svg" xmlns:xlink="http://www.w3.org/1999/xlink" x="0px" y="0px"
	 viewBox="0 0 558.3 139.9" style="enable-background:new 0 0 558.3 139.9;" xml:space="preserve">
<style type="text/css">
	.st0{fill:#FFFFFF;}
	.st1{fill:#ED2024;}
	.st2{fill:#FDFEFE;}
</style>
<g id="Layer_1">
	<g id="Layer_10">
		<path class="st0" d="M384.8,53.5c4,3.9,6,9.6,6,17.1c0,7.3-1.8,13.3-5.3,18c-3.5,4.7-9,7.1-16.4,7.1c-6.2,0-11.1-2.1-14.8-6.3
			c-3.6-4.2-5.5-9.8-5.5-16.9c0-7.6,1.9-13.6,5.8-18.1c3.8-4.5,9-6.7,15.5-6.7C375.9,47.7,380.8,49.6,384.8,53.5z M380.1,83.5
			c1.9-3.8,2.8-8,2.8-12.7c0-4.2-0.7-7.6-2-10.3c-2.1-4.1-5.8-6.2-11-6.2c-4.6,0-8,1.8-10.1,5.3c-2.1,3.5-3.2,7.8-3.2,12.8
			c0,4.8,1.1,8.8,3.2,12c2.1,3.2,5.4,4.8,10,4.8C374.8,89.2,378.2,87.3,380.1,83.5z"/>
	</g>
	<g id="Layer_9">
		<path class="st0" d="M400,49h7.2v7.8c0.6-1.5,2-3.4,4.3-5.5c2.3-2.2,4.9-3.3,7.9-3.3c0.1,0,0.4,0,0.7,0c0.3,0,0.9,0.1,1.7,0.2v8
			c-0.4-0.1-0.9-0.1-1.2-0.2c-0.4,0-0.8,0-1.2,0c-3.8,0-6.7,1.2-8.8,3.7c-2,2.5-3.1,5.3-3.1,8.5V94H400V49z"/>
	</g>
	<g id="Layer_8">
		<path class="st0" d="M428.5,32.3h7.7v8.6h-7.7V32.3z M428.5,49.2h7.7V94h-7.7V49.2z"/>
	</g>
	<g id="Layer_7">
		<path class="st0" d="M455.2,49v29.9c0,2.3,0.4,4.2,1.1,5.6c1.3,2.7,3.9,4,7.5,4c5.3,0,8.9-2.4,10.8-7.1c1-2.5,1.6-6,1.6-10.4V49
			h7.6v45h-7.2l0.1-6.6c-1,1.7-2.2,3.2-3.7,4.3c-2.9,2.4-6.4,3.5-10.5,3.5c-6.4,0-10.8-2.1-13.1-6.4c-1.3-2.3-1.9-5.4-1.9-9.2V49
			H455.2z"/>
	</g>
</g>
<g id="Layer_6">
	<path class="st0" d="M495.5,49h7.5v6.4c1.8-2.2,3.4-3.8,4.9-4.8c2.5-1.7,5.3-2.6,8.5-2.6c3.6,0,6.5,0.9,8.7,2.6
		c1.2,1,2.4,2.5,3.4,4.5c1.7-2.4,3.7-4.2,5.9-5.4c2.3-1.2,4.8-1.7,7.7-1.7c6.1,0,10.2,2.2,12.4,6.6c1.2,2.4,1.8,5.5,1.8,9.5v30h-7.9
		V62.7c0-3-0.8-5.1-2.3-6.2c-1.5-1.1-3.3-1.7-5.5-1.7c-3,0-5.5,1-7.7,3c-2.1,2-3.2,5.3-3.2,10V94h-7.7V64.6c0-3.1-0.4-5.3-1.1-6.7
		c-1.1-2.1-3.3-3.2-6.4-3.2c-2.9,0-5.5,1.1-7.8,3.3s-3.5,6.2-3.5,12V94h-7.6V49z"/>
</g>
<g id="Layer_5">
	<path class="st0" d="M451.4,115.9c0.2-7.6,3.9-11.5,11.2-11.7c3.5,0,6.2,1,8,2.8c1.8,1.9,2.7,4.3,2.7,7.1c0,2.3-0.6,4.3-1.6,5.8
		c-1,1.6-2.4,3-4,4.1c-1.6,1.1-3.2,2.2-4.9,3.1c-1.7,0.9-3.2,1.9-4.6,2.9c-1.2,0.8-2.2,1.8-3,2.9c-0.9,1.2-1.4,2.6-1.5,4.3H473v2.7
		h-22.7c0-1.7,0.2-3.3,0.6-4.7c0.4-1.4,1.1-2.8,2.1-4.1c1.8-2.1,3.8-3.8,5.8-5.1c2-1.3,3.8-2.4,5.4-3.4c1.7-1,3.1-2.2,4.1-3.5
		c1-1.2,1.5-2.9,1.6-4.9c0-2.4-0.8-4.2-2.2-5.5c-1.4-1.3-3.2-1.9-5.4-1.9c-2.3,0-4.1,0.9-5.5,2.6c-1.4,1.7-2,3.9-2,6.3H451.4z"/>
</g>
<g id="Layer_4">
	<path class="st0" d="M489.8,104.2c2.6,0,4.7,0.6,6.2,1.7c1.6,1.1,2.7,2.6,3.5,4.4c0.8,1.8,1.4,3.8,1.6,6c0.2,2.2,0.4,4.3,0.4,6.4
		c0,2.3-0.2,4.6-0.5,6.7c-0.3,2.1-0.9,4-1.8,5.7c-1.6,3.5-4.7,5.4-9.4,5.5c-4.6-0.1-7.8-1.9-9.4-5.5c-0.8-1.7-1.4-3.6-1.8-5.8
		c-0.4-2.2-0.5-4.5-0.5-7c0-2.3,0.2-4.5,0.5-6.7c0.3-2.2,0.9-4.1,1.7-5.8c0.8-1.8,2-3.2,3.6-4.2
		C485.4,104.7,487.4,104.2,489.8,104.2z M498.4,122.3c0-2-0.1-3.8-0.3-5.7c-0.2-1.9-0.6-3.5-1.3-4.9c-1.2-3.1-3.6-4.7-7.1-4.8
		c-3.4,0.1-5.6,1.7-6.8,4.9c-1.2,3.2-1.8,6.8-1.7,10.9c0,4.6,0.6,8.3,1.8,11c1.3,2.8,3.5,4.2,6.8,4.2c1.9,0,3.4-0.5,4.5-1.5
		c1.2-1,2-2.2,2.6-3.7C498,129.6,498.5,126.1,498.4,122.3z"/>
</g>
<g id="Layer_3">
	<path class="st0" d="M522,131.1h-15.8v-2.8l16.1-23.8h2.8v23.8h4.8v2.7h-4.8v8.8H522V131.1z M509.3,128.4H522v-19L509.3,128.4z"/>
</g>
<g id="Layer_2">
	<path class="st0" d="M538.4,132.1c0.7,3.9,2.9,5.8,6.7,5.8c2.1,0,3.7-0.5,5-1.6c1.3-1.1,2.2-2.4,2.9-4c0.7-1.6,1.2-3.3,1.4-5.2
		c0.2-1.8,0.4-3.5,0.4-5.1l-0.1-0.1c-2.1,3.7-5.2,5.5-9.3,5.6c-3.3,0-5.8-1.1-7.7-3.2c-1.9-2-2.9-4.8-3-8.3c0-3.4,0.9-6.3,2.8-8.5
		c1.8-2.2,4.6-3.3,8.3-3.3c4.6,0.1,7.8,1.8,9.6,5.2c1.7,3.4,2.6,7.7,2.6,12.8c-0.3,12.2-4.5,18.4-12.6,18.4c-2.7,0-5-0.7-6.8-2.1
		c-1.8-1.4-2.9-3.6-3.2-6.4H538.4z M545.8,106.9c-5.4,0.3-8,3.4-8,9.2c0.1,5.7,2.7,8.6,8,8.7c2.5,0,4.4-0.9,5.7-2.7
		c1.3-1.7,2-3.8,2-6.2c0-2.7-0.7-4.8-2-6.4C550.2,107.8,548.2,107,545.8,106.9z"/>
</g>
<g id="Layer_11">
	<path class="st0" d="M303.4,49.2h7.4v6c1.5-2,3.2-3.6,5-4.8c2.6-1.7,5.6-2.5,9-2.5c5.1,0,9.4,2,13,5.9c3.6,3.9,5.3,9.5,5.3,16.8
		c0,9.8-2.6,16.8-7.7,21c-3.3,2.7-7,4-11.4,4c-3.4,0-6.2-0.7-8.5-2.2c-1.3-0.8-2.8-2.3-4.5-4.3v23h-7.6V49.2z M331.8,84.5
		c2.3-3,3.5-7.4,3.5-13.3c0-3.6-0.5-6.7-1.6-9.3c-2-5-5.6-7.4-10.8-7.4c-5.2,0-8.8,2.6-10.8,7.9c-1,2.8-1.6,6.4-1.6,10.7
		c0,3.5,0.5,6.4,1.6,8.9c2,4.7,5.6,7,10.8,7C326.5,89,329.5,87.5,331.8,84.5z"/>
</g>
<g id="Layer_12">
	<path class="st0" d="M289,53.5c4,3.9,6,9.6,6,17.1c0,7.3-1.8,13.3-5.3,18c-3.5,4.7-9,7.1-16.4,7.1c-6.2,0-11.1-2.1-14.8-6.3
		c-3.6-4.2-5.5-9.8-5.5-16.9c0-7.6,1.9-13.6,5.8-18.1c3.8-4.5,9-6.7,15.5-6.7C280,47.7,285,49.6,289,53.5z M284.3,83.5
		c1.9-3.8,2.8-8,2.8-12.7c0-4.2-0.7-7.6-2-10.3c-2.1-4.1-5.8-6.2-11-6.2c-4.6,0-8,1.8-10.1,5.3c-2.1,3.5-3.2,7.8-3.2,12.8
		c0,4.8,1.1,8.8,3.2,12c2.1,3.2,5.4,4.8,10,4.8C279,89.2,282.4,87.3,284.3,83.5z"/>
</g>
<g id="Layer_14">
	<path class="st0" d="M160.3,49h7.2v6.4c2.1-2.6,4.4-4.5,6.8-5.7c2.4-1.1,5-1.7,7.9-1.7c6.4,0,10.7,2.2,13,6.7
		c1.2,2.4,1.9,5.9,1.9,10.5V94h-7.7V65.6c0-2.7-0.4-5-1.2-6.6c-1.3-2.8-3.8-4.2-7.3-4.2c-1.8,0-3.3,0.2-4.4,0.5
		c-2.1,0.6-3.9,1.9-5.5,3.7c-1.3,1.5-2.1,3-2.5,4.6c-0.4,1.6-0.6,3.8-0.6,6.8V94h-7.6V49z"/>
</g>
<g id="Layer_13">
	<path class="st0" d="M208.2,49h7.2v6.4c2.1-2.6,4.4-4.5,6.8-5.7c2.4-1.1,5-1.7,7.9-1.7c6.4,0,10.7,2.2,13,6.7
		c1.2,2.4,1.9,5.9,1.9,10.5V94h-7.7V65.6c0-2.7-0.4-5-1.2-6.6c-1.3-2.8-3.8-4.2-7.3-4.2c-1.8,0-3.3,0.2-4.4,0.5
		c-2.1,0.6-3.9,1.9-5.5,3.7c-1.3,1.5-2.1,3-2.5,4.6c-0.4,1.6-0.6,3.8-0.6,6.8V94h-7.6V49z"/>
</g>
<g id="Layer_16">
	<rect x="0" class="st1" width="140.6" height="140.6"/>
</g>
<g id="Layer_15">
	<path class="st2" d="M69.7,59.2C67.9,49.9,63.8,43,57.8,43c-4,0-5.6,3-5.6,6.7h-0.9c-0.6-1.2-1.1-3.2-1.1-5.3
		c0-4.3,2.7-8.5,7.8-8.5c6.6,0,10.2,6.8,13.1,17.9c1.3,4.9,2.8,11.9,5.5,26.4C78.2,89,80.6,97.1,88,97.1c4.4,0,5.9-3,5.9-6.7h0.9
		c0.6,1.2,1.1,3.3,1.1,5.3c0,4.5-3,8.5-7.9,8.5c-6.9,0-10.3-7.9-12.5-16.6c-1.7-6.5-2.4-12.3-3.3-17l-0.6-0.1L56.4,103h-7.8
		L69.7,59.2z"/>
</g>
</svg>
