<?xml version="1.0" encoding="utf-8"?>
<!-- Generator: Adobe Illustrator 25.4.1, SVG Export Plug-In . SVG Version: 6.00 Build 0)  -->
<svg version="1.1" id="Layer_1" xmlns="http://www.w3.org/2000/svg" xmlns:xlink="http://www.w3.org/1999/xlink" x="0px" y="0px"
	 viewBox="0 0 239.2 302.1" style="enable-background:new 0 0 239.2 302.1;" xml:space="preserve">
<style type="text/css">
	.st0{fill:#353434;}
</style>
<path class="st0" d="M119.6,0c33.8,0,67.6,0,101.4,0c1,0,1.4,0.1,1.8,1.4c0.9,3.3,1.5,6.6,2.5,9.9c0.8,2.5,1.1,5.2,1.7,7.8
	c0.6,2.6,1.4,5.2,2,7.8c1,4.3,1.9,8.6,3.1,12.9c0.9,3.3,1.6,6.6,2.5,9.9c0.7,2.6,1.3,5.2,1.8,7.8c0.5,2.1,1,4.2,1.6,6.3
	c0.7,2.7,1.3,5.3,1.3,8.2c-0.1,46.6-0.1,93.3,0,139.9c0,4-0.5,7.8-1.5,11.6c-1.3,5.3-2.7,10.6-3.9,15.9c-0.9,4-2,7.9-2.9,11.8
	c-0.7,2.9-1.4,5.9-2.1,8.8c-1,3.9-1.9,7.9-2.9,11.8c-0.7,2.9-1.4,5.9-2.2,8.8c-1.2,4.6-2.2,9.2-3.4,13.7c-0.6,2.2-1.1,4.5-1.6,6.8
	c-0.2,0.7-0.4,1.3-1.3,1.1c-0.3,0-0.6,0-0.8,0c-64.6,0-129.2,0-193.8,0c-2.8,0-2.1,0.1-2.7-2.2c-0.9-3.5-1.6-7-2.6-10.5
	c-0.7-2.6-1.1-5.2-1.8-7.8c-0.6-2.6-1.3-5.2-2-7.8c-1-4.3-2-8.7-3.1-13c-0.8-3.3-1.7-6.6-2.5-9.9c-0.9-3.6-1.8-7.1-2.5-10.7
	c-0.7-3.3-1.7-6.5-2.5-9.8c-0.9-3.5-1.5-7-2.5-10.4C0.1,218,0,215.8,0,213.6c0-46.5,0-92.9,0-139.4c0-3.9,0.5-7.7,1.5-11.5
	c1.1-4.3,1.9-8.6,3.1-12.9c0.9-3.3,1.6-6.6,2.5-9.9c0.7-2.6,1.3-5.2,1.8-7.8C9.5,29,10.4,26,11.2,23c0.7-2.9,1.4-5.7,2-8.6
	c0.5-2.6,1.3-5.2,2-7.9c0.5-1.9,0.9-3.8,1.4-5.8c0.1-0.5,0.3-0.9,1-0.8c0.3,0,0.6,0,0.8,0C52.1,0,85.9,0,119.6,0z"/>
</svg>
