<?xml version="1.0" encoding="utf-8"?>
<!-- Generator: Adobe Illustrator 25.4.1, SVG Export Plug-In . SVG Version: 6.00 Build 0)  -->
<svg version="1.1" id="Layer_1" xmlns="http://www.w3.org/2000/svg" xmlns:xlink="http://www.w3.org/1999/xlink" x="0px" y="0px"
	 viewBox="0 0 490.7 241.8" style="enable-background:new 0 0 490.7 241.8;" xml:space="preserve">
<style type="text/css">
	.st0{fill:#FFFFFF;}
</style>
<path class="st0" d="M246.1,0c27,0,50.8,3.9,74.1,10.7c30.6,9,59,22.7,86,39.4c25.8,16,49.7,34.5,71.8,55.4c4.5,4.2,8.7,8.7,13,13.1
	c1.7,1.8,1.7,2.9-0.2,4.8c-6.5,6.4-12.8,12.9-19.5,19c-26,23.5-54.1,44.1-84.9,60.9c-23.9,13.1-48.9,23.6-75.4,30.5
	c-16.8,4.3-33.9,7.1-51.2,7.9c-27.5,1.3-54.4-2.4-80.8-10c-17.9-5.1-35.2-12-51.9-20.2c-37.1-18.2-70.6-41.7-101.1-69.5
	c-6.8-6.2-13.2-12.7-19.7-19.1c-1.6-1.5-1.5-1.8-0.1-3.5c8.8-10.2,18.6-19.3,28.8-27.9c18-15.2,36.7-29.4,56.8-41.7
	c22.8-14,46.6-26,72-34.8c17.7-6.1,35.9-10.6,54.5-13C228.3,0.7,238.5,0,246.1,0z M11,120.6c0.5,0.6,0.8,1,1.2,1.4
	c4.5,4.4,8.9,8.9,13.5,13.2c31,28.7,65,52.9,102.9,71.7c20.6,10.2,42.1,18.2,64.5,23.5c21.9,5.2,44,7.5,66.5,6.4
	c17.4-0.8,34.5-3.7,51.3-8.1c26.3-6.9,51.1-17.6,74.9-30.8c24-13.3,46.3-29,67.5-46.5c11.1-9.2,21.7-19,31.8-29.3
	c0.7-0.7,0.9-1.2,0.1-2c-3.9-3.8-7.6-7.7-11.5-11.4c-22.6-21.3-47.2-40.1-73.8-56.3c-25.7-15.6-52.7-28.4-81.6-36.8
	C292.9,8,267.1,4.2,240.6,5.2C225.7,5.7,211,7.7,196.4,11c-24.1,5.4-47,14-69.1,24.9c-25,12.3-48.3,27.4-70.4,44.4
	c-13.5,10.4-26.3,21.5-38.5,33.4C16,115.9,13.5,118.2,11,120.6z"/>
<path class="st0" d="M317.6,221.4c-2.4,0.3-4.6,0.7-6.8,0.8c-3.6,0.3-7.1-0.1-10.5-1.3c-6.5-2.3-10.2-7.1-12.1-13.6
	c-1.2-4.3-1.6-8.7-1.2-13.2c0.1-1.4-0.3-2.4-1.3-3.4c-8.6-8.4-16.9-17-26.1-24.8c-1.1-1-2.3-1.5-3.8-1.4c-4.3,0.2-8.6,0-12.8-1.4
	c-6.8-2.2-11-6.7-12.7-13.7c-1.1-4.6-0.9-9.3,0-13.9c0-0.2,0.1-0.5,0.2-0.7c0-0.1,0.1-0.2,0.3-0.4c0.3,0.2,0.5,0.5,0.8,0.7
	c3.8,3.8,7.6,7.5,11.5,11.3c1.2,1.2,2.6,1.4,4.1,0.7c4.7-2.2,8.2-5.5,10.3-10.3c0.6-1.3,0.5-2.3-0.6-3.4c-4-4.2-8-8.4-12-12.6
	c-0.1-0.1-0.2-0.2-0.4-0.6c2-0.2,3.9-0.5,5.7-0.4c3,0.1,6.1,0.2,9,0.8c8.2,1.8,13.2,7,15.1,15.3c0.8,3.6,1,7.2,0.5,10.8
	c-0.2,1.3,0.2,2.2,1.1,3.1c8.8,8.7,17.6,17.4,26.3,26.1c0.9,0.9,1.9,1.2,3.2,1.1c4-0.4,8.1-0.3,12,0.8c7.1,1.9,11.6,6.4,13.6,13.5
	c1.4,4.7,1.4,9.5,0.6,14.4c-0.1,0.4-0.3,0.8-0.5,1.3c-4-5-8.7-8.8-13.8-12.3c-1.1-0.8-2.1-0.8-3.2-0.3c-2,0.9-3.7,2.1-5,3.8
	c-1.6,2-3,4.1-4.6,6.2c-0.6,0.8-0.4,1.5,0.1,2.2c3.4,4.6,7,9.1,11.3,12.9c0.4,0.3,0.7,0.7,1,1C317.3,220.9,317.3,221,317.6,221.4z"
	/>
<path class="st0" d="M310.9,168.9c-1.3,1.2-2.5,2.2-3.7,3.3c-0.3-0.2-0.5-0.4-0.7-0.6c-2.9-3.2-5.8-6.5-8.8-9.7
	c-0.9-0.9-1.1-1.8-0.6-3c2-5.2,3.3-10.5,3.5-16.1c0.1-1.2,0.5-1.9,1.6-2.5c3.3-1.7,6.6-3.5,9.9-5.1c1.1-0.6,1.6-1.2,1.3-2.5
	c-0.2-1.1-0.4-2.3-0.5-3.4c-0.1-1-0.5-1.4-1.5-1.5c-3.6-0.4-7.1-1-10.7-1.4c-1.4-0.2-2.1-0.7-2.5-2.1c-1.8-6-4.8-11.5-8.7-16.4
	c-0.8-1-0.9-1.8-0.4-3c1.4-3.4,2.8-6.8,4.2-10.2c0.5-1.1,0.5-1.9-0.6-2.6c-0.6-0.4-1-1-1.6-1.5c-1.2-1-1.8-1-3.1-0.2
	c-2.9,1.9-5.9,3.8-8.7,5.7c-1,0.7-1.8,0.6-2.8,0c-5.9-3.8-12.3-6.2-19.2-7.2c-1.1-0.2-1.7-0.7-2-1.7c-1.1-3.5-2.2-7-3.3-10.5
	c-0.3-1.1-1-1.7-2.2-1.6c-0.4,0-0.9,0-1.3,0c-1.5,0-2.4,0.7-2.8,2.1c-1.1,3.4-2.2,6.7-3.2,10.1c-0.3,1-0.9,1.5-1.9,1.7
	c-6.8,1.1-13.1,3.5-18.9,7.2c-1.1,0.7-2,0.7-3.2,0c-2.9-1.9-5.9-3.8-8.9-5.7c-1-0.7-1.8-0.7-2.6,0.3c-0.5,0.6-1.1,1.2-1.8,1.6
	c-1,0.7-1.1,1.5-0.6,2.6c1.5,3.4,2.8,6.9,4.3,10.3c0.5,1.1,0.3,1.9-0.4,2.8c-3.9,4.9-6.8,10.4-8.7,16.5c-0.3,1.1-0.9,1.6-2,1.7
	c-3.4,0.4-6.8,0.9-10.2,1.4c-2,0.3-2.3,0.5-2.5,2.5c-0.1,1-0.2,2-0.4,3c-0.2,1.1,0.1,1.7,1.1,2.2c3.3,1.7,6.6,3.5,10,5.2
	c1.2,0.6,1.7,1.4,1.8,2.7c0.3,5.4,1.4,10.6,3.5,15.6c0.5,1.2,0.3,2-0.5,2.9c-2.4,2.5-4.7,5.1-7,7.7c-1.3,1.4-1.3,1.5-0.2,3.2
	c0.7,1.1,1.5,2.3,2.1,3.5c0.6,1,1.3,1.4,2.4,1.1c3.7-0.9,7.4-1.6,11.1-2.4c1.1-0.3,2,0,2.8,0.8c3.3,3.5,6.9,6.4,11.1,8.8
	c1,0.6,1.5,1.3,1.4,2.5c-0.2,3.6-0.3,7.1-0.4,10.7c-0.1,2,0,2.1,1.9,2.7c1.5,0.5,3,1,4.5,1.6c1.1,0.4,1.8,0.2,2.5-0.7
	c2.3-3,4.6-5.9,6.9-8.9c0.7-1,1.5-1.3,2.8-1.1c4.2,0.6,8.4,0.7,12.6,0.1c1.8-0.2,3,0.2,4.1,1.7c2.7,3.6,5.5,7.1,8.4,10.8
	c-1.3,1.1-2.6,2-4,3.1c-0.6-0.8-1.2-1.4-1.7-2.1c-1.9-2.4-3.8-4.8-5.6-7.2c-0.6-0.8-1.3-1.1-2.3-1.1c-3.2,0-6.4,0-9.6,0
	c-1,0-1.7,0.3-2.2,1.1c-2.3,3.1-4.8,6.1-7.1,9.2c-0.8,1.1-1.6,1.3-2.9,0.9c-3.9-1.4-7.9-2.8-11.9-4.2c-1.1-0.4-1.5-1-1.5-2.1
	c0.2-3.9,0.3-7.7,0.5-11.6c0.1-1-0.3-1.7-1.1-2.4c-2.7-2.2-5.5-4.3-8.2-6.5c-0.7-0.6-1.4-0.8-2.3-0.6c-3.8,0.8-7.6,1.7-11.4,2.5
	c-1.9,0.4-2.1,0.3-3.1-1.3c-2-3.3-4.1-6.6-6.1-9.9c-0.6-1-0.6-1.8,0.2-2.7c2.6-2.8,5.1-5.6,7.7-8.4c0.7-0.8,0.8-1.5,0.6-2.6
	c-0.9-3.9-1.8-7.8-2.5-11.7c-0.2-1.1-0.6-1.9-1.7-2.4c-3.5-1.8-7-3.7-10.5-5.5c-1-0.5-1.3-1.2-1.2-2.3c0.5-3.6,1-7.3,1.5-10.9
	c0.1-1.1,0.6-1.7,1.8-1.8c3.7-0.5,7.4-1.1,11.2-1.5c1.1-0.1,1.7-0.6,2.1-1.6c1.7-4.6,4-8.8,6.8-12.8c0.7-0.9,0.7-1.8,0.3-2.8
	c-1.5-3.5-2.9-7-4.3-10.6c-0.6-1.5-0.5-2,0.7-3c2.4-2.1,4.8-4.2,7.1-6.3c0.9-0.8,1.7-0.9,2.8-0.3c3.1,2,6.2,3.9,9.2,5.9
	c1.1,0.7,2,0.8,3.2,0.1c4.6-2.7,9.5-4.5,14.7-5.6c1.2-0.3,1.9-0.8,2.3-2.1c1.1-3.6,2.3-7.1,3.4-10.6c0.4-1.3,1-1.7,2.3-1.7
	c3.1,0.1,6.2,0.1,9.4,0c1.1,0,1.7,0.4,2,1.5c1.1,3.6,2.3,7.2,3.4,10.9c0.3,1.1,0.9,1.7,2.1,2c5.4,1.1,10.5,3,15.3,5.8
	c1,0.5,1.7,0.5,2.7-0.1c3.2-2,6.4-4,9.5-6.1c1-0.6,1.8-0.6,2.7,0.2c2.4,2.2,4.8,4.3,7.3,6.4c1,0.8,1.1,1.6,0.6,2.7
	c-1.5,3.6-2.9,7.2-4.4,10.8c-0.4,1-0.3,1.7,0.3,2.6c3,4.1,5.4,8.5,7.1,13.3c0.4,1,1,1.5,2,1.6c3.8,0.5,7.5,1,11.3,1.5
	c1.1,0.1,1.6,0.6,1.8,1.7c0.5,3.7,1,7.4,1.5,11.1c0.1,1-0.2,1.6-1,2c-3.5,1.8-7,3.7-10.5,5.5c-1.1,0.6-1.7,1.3-1.8,2.6
	c-0.3,4.1-1.2,8.1-2.6,11.9c-0.4,1.1-0.2,1.9,0.6,2.7C305.9,163.3,308.4,166,310.9,168.9z"/>
<path class="st0" d="M285.3,152.5c0.6-3.7,1.5-7.2,1.7-10.7c1.3-19.6-13-37.1-32.4-40c-23.5-3.5-44.6,14.8-44.5,38.5
	c0.1,20.4,15.9,37.4,36.2,38.9c1.9,0.1,3.8,0.1,5.7,0c1.7-0.1,1.9,0,1.8,2c-1.7,0.1-3.4,0.3-5.1,0.2c-16.2-0.3-28.5-7.6-36.6-21.6
	c-8.7-15.1-6.3-34.9,5.2-48c11.6-13.2,29.8-17.9,46.3-12c16.4,5.9,27.7,21.5,28.2,38.9c0.1,4.8-0.4,9.5-1.8,14.1
	c-0.3,1-0.7,1.4-1.8,0.9C287.3,153.1,286.2,152.8,285.3,152.5z"/>
<path class="st0" d="M216.4,61.8c-1.4,0.3-2.6,0.4-3.8,0.7c-1,0.2-1.4,0-1.6-1.1c-0.7-4-1.4-7.9-2.2-11.9c-0.5-2.8-1.1-5.6-1.7-8.4
	c-1.5-7.2,1.6-12.8,8.8-14.9c2.6-0.8,5.4-0.9,8.2-1.1c6.2-0.5,12.4-0.9,18.7-1.3c4.2-0.3,7.8,1.1,10.8,4c2.2,2.1,3.2,4.8,3,7.8
	c-0.3,7.4-0.6,14.8-1,22.2c-0.1,1.4-0.3,1.6-1.6,1.5c-0.8,0-1.6-0.1-2.4-0.1c-0.9,0-1.1-0.3-1.1-1.1c0.1-4.2,0.2-8.5,0.3-12.7
	c0-2.1,0.1-2.1-2.1-2.1c-11.1-0.1-22,0.7-33,2.4c-0.2,0-0.3,0-0.5,0.1c-1.6,0.3-1.6,0.3-1.3,1.8c0.7,4.2,1.5,8.4,2.2,12.6
	C216.3,60.8,216.3,61.2,216.4,61.8z M241.1,38.5c2.9,0,5.8,0,8.7,0c0.4,0,1-0.3,1.1-0.6c0.9-3.2-0.3-6-3.2-7.7
	c-1.6-0.9-3.4-1.3-5.3-1.2c-5.5,0.4-10.9,0.7-16.4,1.1c-2.5,0.2-5,0.3-7.5,0.8c-5.1,1.1-7,4.4-5.9,9.5c0.1,0.6,0.4,0.9,1,0.8
	c0.3-0.1,0.7-0.1,1.1-0.1C223.5,39.6,232.2,38.8,241.1,38.5z"/>
<path class="st0" d="M76.5,112.5c0.1-3.8,1.3-7.2,3.7-10.2c5.7-7.1,12-13.8,18.7-20.1c3.1-2.9,6.9-4.1,11.1-4.1
	c2.7,0,4.9,1.1,6.6,3.1c2.8,3.2,5.5,6.4,8.1,9.8c3.6,4.6,3.6,10.1,0,14.9c-2.2,2.9-4.7,5.4-7.1,8.1c-3.3,3.7-6.7,7.3-10.1,10.9
	c-2.6,2.7-5.7,4.5-9.4,5.1c-2.6,0.4-5.1-0.1-7.3-1.6c-3.5-2.5-7.1-5.1-10.6-7.7C77.5,118.6,76.4,115.8,76.5,112.5z M81.8,112.6
	c0,1.1,0.6,2.6,2.1,3.7c3.3,2.5,6.6,4.9,9.9,7.4c1.3,0.9,2.7,1.2,4.2,1c2.3-0.4,4.2-1.6,5.7-3.2c3.7-4,7.5-8,11.2-12
	c1.8-1.9,3.6-3.8,5.2-5.8c2.3-2.8,2.5-6.2,0.6-8.5c-2.8-3.4-5.6-6.7-8.5-9.9c-1-1.2-2.3-1.7-4-1.6c-2.5,0.1-4.7,1.1-6.5,2.8
	c-6.3,5.9-12.2,12.2-17.7,18.9C82.8,107.1,81.9,109.3,81.8,112.6z"/>
<path class="st0" d="M295.6,66.1c0.2-0.7,0.3-1.3,0.5-1.9c2.4-8.1,4.7-16.2,7.1-24.3c1.4-4.8,4.8-6.9,9.6-5.5
	c4,1.2,7.9,2.7,11.7,4.2c5.4,2.2,10.7,4.5,16,6.7c0.7,0.3,1.4,0.7,2.2,1.1c-0.7,1.5-1.4,2.9-2.1,4.4c-0.4-0.2-0.8-0.3-1.1-0.5
	c-9-3.6-17.9-7.3-26.9-10.9c-2.2-0.9-3.3-0.3-4,1.9c-0.7,2-1.3,4-1.9,6.2c10.2,3.3,20,7.1,29.6,12c-0.7,1.5-1.4,2.9-2.2,4.5
	c-9.4-4.5-18.9-8.5-28.9-11.6c-1.1,3.4-2.1,6.8-3.1,10.2c9.4,3,18.5,6.6,27.3,11.1c-0.7,1.5-1.4,2.9-2.2,4.5
	C317,73.3,306.6,69.3,295.6,66.1z"/>
<path class="st0" d="M369.6,101.2c-0.2,0.3-0.3,0.4-0.4,0.6c-0.9,1-1.8,2-2.8,3.2c-0.4-0.3-0.9-0.6-1.2-1
	c-7.8-6.8-16.1-12.9-24.9-18.4c-4.3-2.7-6.8-6.5-6.5-11.6c0.1-1.5,0.5-3.2,1.2-4.6c1.8-3.8,3.8-7.5,5.8-11.2c2.2-4.1,6.7-6,11.8-5
	c2.2,0.4,4.4,1.2,6.3,2.4c10.7,6.3,20.5,13.7,29.7,21.8c0.3,0.3,0.6,0.5,1.1,0.8c-1.2,1.3-2.2,2.5-3.3,3.8c-0.7-0.6-1.3-1-1.8-1.5
	c-8.7-7.6-18-14.5-27.9-20.5c-2.2-1.4-4.6-2.2-7.3-1.7c-1.7,0.3-3,1.2-3.8,2.8c-1.8,3.4-3.7,6.8-5.6,10.2c-1.9,3.5-1.4,6.4,1.6,9
	c1.7,1.4,3.7,2.6,5.6,3.8c7.3,4.8,14.3,10,20.8,15.8C368.7,100.3,369.1,100.7,369.6,101.2z"/>
<path class="st0" d="M159.6,47.4c-3.2,1.6-6.3,3.1-9.4,4.6c-7.8,3.9-15.2,8.4-22.4,13.3c-2.1,1.4-3.8,3.2-4.5,5.7
	c-0.6,1.9-0.3,3.5,0.9,5.1c2.4,3.1,4.8,6.3,7.2,9.5c1.9,2.6,5.4,3.4,8.7,1.8c1.7-0.8,3.2-1.9,4.8-2.9c7.7-5,15.7-9.4,24-13.3
	c1.1-0.5,1.6-0.4,2,0.8c0.3,1,0.9,2,1.4,3.1c-0.5,0.3-1,0.6-1.6,0.8c-9.1,4.2-17.8,9.1-26,14.8c-3.5,2.4-7.4,3.2-11.5,2.3
	c-2.3-0.5-4.2-1.7-5.7-3.5c-2.6-3.3-5.1-6.5-7.7-9.8c-2-2.6-2.6-5.5-1.9-8.7c0.9-3.7,2.8-6.7,5.9-8.9c10.3-7.2,21.2-13.3,32.6-18.6
	c0.8-0.4,1.3-0.3,1.6,0.6C158.5,45.2,159.1,46.2,159.6,47.4z"/>
<path class="st0" d="M383.4,99.2c-3.7,3.8-7.3,7.6-11,11.4c-1.3-1.3-2.6-2.4-3.9-3.7c8.1-8.6,16.1-17.2,24.2-25.9
	c1.4,1.3,2.7,2.6,4.2,4c-3.3,3.4-6.5,6.8-9.8,10.3c6.6,7.5,13.1,14.9,19.8,22.5c3.8-2.8,7.5-5.6,11.4-8.5c1.2,1.6,2.3,3.1,3.5,4.8
	c-9.6,7-19.1,13.9-28.7,20.9c-1.1-1.5-2.1-2.9-3.3-4.4c4.3-3.2,8.4-6.3,12.7-9.5C396.7,113.2,390.4,106,383.4,99.2z"/>
<path class="st0" d="M162.8,45.9c-0.6-1.3-1.1-2.6-1.6-3.8c-0.1-0.2-0.1-0.4-0.2-0.6c0.3-0.2,0.6-0.3,0.9-0.4
	c12.1-5.1,24.6-9.1,37.5-12c1.7-0.4,1.8-0.3,2.1,1.4c0,0.2,0.1,0.3,0.1,0.5c0.5,2.5,0.5,2.5-1.9,3.1c-4.8,1.2-9.7,2.5-14.7,3.8
	c3,9.7,6.1,19.4,9.1,29.2c-1.5,0.5-2.8,0.9-4.2,1.3c-0.8,0.3-1-0.3-1.2-0.9c-1.4-4.2-2.7-8.4-4.1-12.7c-1.5-4.6-3-9.2-4.5-13.8
	c-0.3-1.1-0.8-1.3-1.9-0.9c-4.7,1.9-9.5,3.6-14.2,5.4C163.6,45.6,163.3,45.7,162.8,45.9z"/>
<path class="st0" d="M302,31.1c-0.4,1.6-0.8,3.1-1.2,4.7c-5.8-1.3-11.5-2.5-17.3-3.8c-1.7,10-3.4,20-5.2,30.1
	c-1.6-0.2-3.1-0.4-4.5-0.8c-0.2,0-0.5-0.7-0.4-1.1c0.3-2.4,0.7-4.8,1.1-7.2c1.1-6.7,2.1-13.3,3.2-20c0.3-1.6,0-1.9-1.6-2.1
	c-4.8-0.5-9.6-1-14.4-1.5c-0.4,0-0.8-0.1-1.3-0.2c0.1-1.6,0.2-3.1,0.3-4.8C274.7,25.3,288.4,27.5,302,31.1z"/>
</svg>
