<?xml version="1.0" encoding="utf-8"?>
<!-- Generator: Adobe Illustrator 25.4.1, SVG Export Plug-In . SVG Version: 6.00 Build 0)  -->
<svg version="1.1" id="Layer_1" xmlns="http://www.w3.org/2000/svg" xmlns:xlink="http://www.w3.org/1999/xlink" x="0px" y="0px"
	 viewBox="0 0 214.9 168.9" style="enable-background:new 0 0 214.9 168.9;" xml:space="preserve">
<style type="text/css">
	.st0{fill:#FFFFFF;}
</style>
<path class="st0" d="M214.9,168.9c-71.7,0-143.2,0-214.9,0C0,112.6,0,56.3,0,0c71.6,0,143.2,0,214.9,0
	C214.9,56.3,214.9,112.5,214.9,168.9z M5,163.9c68.4,0,136.6,0,204.9,0c0-53,0-106,0-158.9C141.5,5,73.3,5,5,5C5,58,5,110.9,5,163.9
	z"/>
<path class="st0" d="M133.9,84.8c-0.1,0.7-0.1,1.8-0.4,2.8c-0.8,3.3-2.6,5.8-6.1,6.6c-3.4,0.9-6.7,0.5-9.3-2.2
	c-3.8-3.9-3.2-12.2,1-15.5c3-2.3,6.4-2.3,9.8-0.9c3.1,1.2,4.4,4,4.8,7.2C133.9,83.3,133.9,83.9,133.9,84.8z M131.4,84.5
	c-0.1,0-0.1,0-0.2,0c0-0.4,0-0.8,0-1.2c-0.2-3.3-2.4-5.7-5.2-6.1c-3.4-0.4-6.2,1.2-7.1,4.3c-0.6,2-0.7,4.1-0.1,6.1
	c0.8,2.9,2.7,4.5,5.7,4.6c3.2,0.2,5.1-1,6.2-4C131,87,131.1,85.8,131.4,84.5z"/>
<path class="st0" d="M190.4,86.1c0,2.6,0,5.2,0,7.8c-0.9,0-1.7,0-2.5,0c0-6.2,0-12.3,0-18.6c0.6,0,1.3,0,1.9,0c2.2,0,4.4,0,6.6,0
	c0.6,0,1.2,0.1,1.8,0.1c2.1,0.3,3.8,1.2,4.3,3.4c0.5,2.2,0.2,4.2-1.9,5.6c-0.1,0.1-0.2,0.2-0.3,0.3c1.9,0.9,2,2.5,2.1,4.3
	c0,1.6-0.2,3.3,1.2,4.9c-1.1,0-2,0.1-2.8,0c-0.3,0-0.7-0.6-0.7-1c-0.2-1.5-0.2-3-0.3-4.4c-0.1-1.4-0.8-2.4-2.2-2.4
	C195.1,86,192.8,86.1,190.4,86.1z M193.8,83.9C193.8,83.9,193.8,83.9,193.8,83.9c1.2,0,2.5,0,3.7-0.2c1.8-0.3,2.5-1.3,2.4-3.2
	c0-1.7-0.8-2.7-2.6-2.8c-2.1-0.1-4.1-0.1-6.2-0.1c-0.6,0-0.8,0.3-0.8,0.9c0,1.6,0,3.1,0,4.7c0,0.6,0.2,0.9,0.8,0.9
	C192,83.9,192.9,83.9,193.8,83.9z"/>
<path class="st0" d="M151.6,75.3c2.9,0,5.6-0.1,8.4,0c3.2,0.2,5.3,2,6.3,5c1.1,3.4,0.9,6.7-0.7,9.9c-1.1,2.2-3,3.5-5.4,3.7
	c-2.8,0.2-5.7,0-8.6,0C151.6,87.8,151.6,81.6,151.6,75.3z M154.1,91.7c1.9,0,3.7,0.1,5.5,0c1.8-0.1,3.1-1.1,3.8-2.7
	c1.3-2.8,1.3-5.7,0.1-8.6c-0.6-1.3-1.6-2.3-3-2.5c-2.1-0.3-4.2-0.3-6.4-0.4C154.1,82.3,154.1,87,154.1,91.7z"/>
<path class="st0" d="M183.1,85.5c-2.6,0-5,0-7.5,0c-0.4,0-0.9,0-1.3,0c-1-0.1-1.4,0.2-1.4,1.3c0.1,1.3,0.1,2.6,0,3.8
	c0,0.8,0.3,1.1,1.1,1.1c2.8,0,5.6,0,8.4,0c2,0,2,0,1.8,2.2c-4.5,0-9.1,0-13.7,0c0-6.1,0-12.3,0-18.6c4.5,0,8.9,0,13.5,0
	c0,0.7,0,1.4,0,2.3c-1.1,0-2.2,0-3.3,0c-2.2,0-4.5,0-6.7,0c-0.8,0-1.1,0.2-1.1,1c0.1,1.2,0.1,2.4,0,3.6c0,0.8,0.2,1,1,1
	c2.6,0,5.2,0,7.8,0c0.4,0,0.9,0,1.4,0C183.1,84,183.1,84.7,183.1,85.5z"/>
<path class="st0" d="M93.5,83.3c0,0.8,0,1.4,0,2.2c-2.4,0-4.7,0-7,0c-3.2,0-3.2,0-3.2,3.2c0,3.1,0,3.1,3,3.1c2.7,0,5.4,0,8.2,0
	c0,0.8,0,1.4,0,2.2c-4.6,0-9.1,0-13.7,0c0-6.2,0-12.3,0-18.6c4.5,0,8.9,0,13.4,0c0,0.7,0,1.4,0,2.3c-3.6,0-7.2,0-11,0
	c0,1.8,0,3.4,0,5.1c0,0.2,0.6,0.5,1,0.5c2.6,0,5.2,0,7.8,0C92.5,83.3,93,83.3,93.5,83.3z"/>
<path class="st0" d="M100.5,93.9c-0.5,0-0.8,0-1.1,0.1c-0.4,0-0.9,0-1.4,0c0-6.3,0-12.4,0-18.7c0.8,0,1.5,0,2.4,0c0,2.5,0,5,0,7.6
	c3.3,0,6.4,0,9.7,0c0-2.5,0-5,0-7.6c0.9,0,1.7,0,2.6,0c0,6.2,0,12.3,0,18.6c-0.8,0-1.6,0-2.5,0c0-2.8,0-5.6,0-8.5
	c-3.3,0-6.4,0-9.7,0C100.5,88.2,100.5,91,100.5,93.9z"/>
<path class="st0" d="M77.3,87.2c0.2,3.5-3.1,6.9-7,7.2c-4.9,0.5-8.5-2.3-9.3-7.2c-0.5-2.9-0.4-5.7,1.1-8.3c2.7-4.8,10-5.8,13.5-1.7
	c0.9,1,1.5,2.1,1.5,3.5c-2,0.4-2.1,0.4-3-1.2c-1-1.9-2.6-2.5-4.6-2.5c-2.3,0-4.2,0.9-5.2,3c-1.4,3-1.5,6.2,0,9.3
	c1.1,2.2,3,3,5.4,2.9c2.3-0.1,3.8-1.4,4.6-3.5C75.2,86.9,75.3,86.8,77.3,87.2z"/>
<path class="st0" d="M59.4,93.9c-0.1,0-0.2,0.1-0.3,0.1c-2.4,0.2-2.4,0.2-3.2-2.1c-0.4-1.1-0.5-2.7-1.3-3.2
	c-0.8-0.6-2.3-0.2-3.5-0.2c-1.2,0-2.7-0.4-3.5,0.2c-0.8,0.6-1,2.1-1.4,3.2c0,0.1-0.1,0.2-0.1,0.2c-0.8,2.2-0.8,2.2-3.3,1.8
	c0.4-1.2,0.9-2.3,1.3-3.5c1.8-4.7,3.6-9.3,5.2-14c0.5-1.4,1.4-1,2.3-1.1c0.8-0.1,1.2,0.3,1.4,1c2,5.6,4,11.1,6,16.7
	C59.3,93.3,59.3,93.6,59.4,93.9z M51.3,78.6c-0.1,0-0.2,0-0.3,0c-0.9,2.5-1.8,5-2.8,7.7c2,0,3.8,0,5.7,0
	C53,83.7,52.2,81.1,51.3,78.6z"/>
<path class="st0" d="M15.4,93.9c-0.9,0-1.6,0-2.5,0c0-6.2,0-12.3,0-18.5c3.3,0,6.7-0.2,9.9,0.1c2.7,0.2,4.1,2.7,3.9,5.7
	c-0.2,2.7-2,4.7-4.6,4.8c-1.7,0.1-3.4,0.1-5,0.1c-1.7,0-1.7,0-1.7,1.8C15.4,89.9,15.4,91.9,15.4,93.9z M15.4,84
	c2.3-0.1,4.4,0,6.5-0.3c1.7-0.2,2.4-1.4,2.2-3.4c-0.1-1.5-1-2.5-2.6-2.6c-1.8-0.1-3.6-0.1-5.4-0.1c-0.3,0-0.7,0.4-0.7,0.6
	C15.4,80,15.4,81.9,15.4,84z"/>
<path class="st0" d="M32.5,91.7c3.2,0,6.3,0,9.4,0c0,0.8,0,1.4,0,2.2c-3.9,0-7.9,0-11.9,0c0-6.2,0-12.3,0-18.6c0.8,0,1.6,0,2.5,0
	C32.5,80.8,32.5,86.2,32.5,91.7z"/>
<path class="st0" d="M148.7,94c-3.9,0-7.8,0-11.8,0c0-6.2,0-12.4,0-18.6c0.4,0,0.8-0.1,1.1-0.1c0.4,0,0.8,0,1.3,0.1c0,0.5,0,1,0,1.5
	c0,4.6,0,9.1,0,13.7c0,1,0.3,1.3,1.3,1.3c2.1-0.1,4.2,0,6.4,0C149.1,91.7,149.1,91.8,148.7,94z"/>
</svg>
