<?xml version="1.0" encoding="utf-8"?>
<!-- Generator: Adobe Illustrator 25.4.1, SVG Export Plug-In . SVG Version: 6.00 Build 0)  -->
<svg version="1.1" id="Layer_1" xmlns="http://www.w3.org/2000/svg" xmlns:xlink="http://www.w3.org/1999/xlink" x="0px" y="0px"
	 viewBox="0 0 946.6 731.9" style="enable-background:new 0 0 946.6 731.9;" xml:space="preserve">
<style type="text/css">
	.st0{fill:#FDFDFD;}
	.st1{fill:#E62731;}
</style>
<path class="st0" d="M469.3,0c21,0.1,41.9,1.4,62.7,4.1c72.1,9.2,140.7,30,206.1,61.6c33.8,16.4,65.7,35.7,95.3,58.9
	c23.6,18.6,45.1,39.3,63.4,63.1c16.5,21.4,29.7,44.7,38.6,70.3c9.2,26.8,12.9,54.4,10.7,82.7c-2.1,26.7-9.3,52-21,76.1
	c-12.1,25-28.2,47.2-46.9,67.5c-21.3,23.1-45.5,42.9-71.4,60.5c-34,23.1-70.3,41.8-108.4,57.3c-41.4,16.8-84.1,29.5-128.1,37.9
	c-30.8,5.9-61.8,9.4-93.2,10c-17.6,0.3-35.2-0.4-52.7-2.1c-67.5-6.4-132.1-24-194.2-51.1c-37-16.2-72.2-35.8-104.7-59.8
	c-25.1-18.5-48.2-39.4-68.1-63.5c-17.8-21.6-32.4-45-42.6-71.1C4,374.8-1,346.2,0.2,316.5c1.2-29.6,8.6-57.6,21.3-84.3
	c12-25.1,27.9-47.5,46.6-68c21.6-23.6,46-43.9,72.5-61.9c33.5-22.7,69.2-41.1,106.7-56.3c39.2-15.9,79.6-27.9,121.2-35.9
	c31.4-6.1,63.1-9.6,95.1-10.1C465.5,0,467.4,0,469.3,0z M466.9,20c-21.9-0.1-45.8,2-69.6,5.5c-24.9,3.7-49.6,8.9-73.8,15.7
	C276,54.5,230.5,72.7,187.4,96.9c-29.7,16.7-57.6,36.1-82.8,59.1c-19.4,17.7-36.7,37.3-50.9,59.4c-18.8,29.4-30.7,61.2-33.2,96.2
	c-1.1,15.5-0.3,30.8,2.4,46.1c4.1,23.1,12.3,44.8,23.8,65.2c13.5,23.9,30.7,45,50.4,64.1c23.9,23.1,50.5,42.6,78.9,59.6
	c37.9,22.6,78.1,40.3,120,54c45.1,14.7,91.2,24.5,138.6,28.2c22.2,1.7,44.4,1.8,66.6,0.2c22-1.5,43.8-4.5,65.4-8.6
	c51.4-9.9,101-25.6,148.6-47.3c35.2-16.1,68.7-35.2,99.6-58.6c21.2-16.1,40.9-33.9,58-54.3c16-19,29.5-39.7,39-62.7
	c16.3-39.2,19.3-79.4,8.3-120.5c-6.3-23.6-17.1-45.3-30.9-65.4c-14.9-21.7-32.7-40.8-52.5-58c-23.8-20.8-49.8-38.6-77.4-54
	C689.7,60.7,615.1,36,536,24.8C513.8,21.7,491.5,20,466.9,20z"/>
<path class="st0" d="M317.1,691.7c-0.6,1.2-0.4,2.1-0.4,3c0,10.5,0,21,0,31.4c0,0.5,0,1,0,1.4c-0.1,3.4-3,5.3-6.2,3.8
	c-0.9-0.4-1.6-1.1-1.7-2.1c-0.1-0.9-0.2-1.7-0.2-2.6c0-14.5,0-29,0-43.4c0-0.5,0-1,0-1.4c0.2-2.4,1-3.3,3.5-3.3
	c2.6-0.1,5.3,0,7.9-0.1c1.2,0,1.7,0.4,2,1.5c1.4,5,3,10,4.4,14.9c0.2,0.7,0.3,1.4,1,2.1c0.7-2.1,1.3-4.1,2-6.2
	c1.1-3.6,2.3-7.2,3.3-10.8c0.4-1.3,0.9-1.6,2.2-1.6c2.4,0.1,4.8,0,7.2,0c2.8,0.1,3.9,1,3.9,3.7c0.1,15.1,0.1,30.2,0,45.3
	c0,3.1-1.6,4.4-4.6,4.1c-1.9-0.2-3-1.3-3.3-3.2c-0.1-0.7,0-1.4,0-2.2c0-10.6,0-21.3,0-31.9c0-0.9,0-1.7,0-2.7
	c-0.8,0.4-0.8,1.1-1,1.7c-1.9,6.2-3.8,12.4-5.8,18.5c-0.3,1-0.6,2-1.3,2.8c-1.9,2.2-4.8,1.9-6.1-0.7c-0.3-0.7-0.6-1.5-0.8-2.3
	c-1.8-5.9-3.6-11.8-5.3-17.7C317.6,693.4,317.4,692.8,317.1,691.7z"/>
<path class="st0" d="M721.1,709.1c2.9,4.9,5.9,9.4,8.3,14.2c0.5,0.9,1,1.8,1.5,2.8c1,2.3,0.5,3.7-1.8,5c-2.3,1.3-3.8,1-5.1-1.1
	c-1.9-3.1-3.7-6.2-5.5-9.3c-1.9-3.2-3.8-6.3-5.6-9.5c-0.5-0.8-1-1.2-2.1-1.2c-4.3-0.1-4.3-0.2-4.3,4.2c0,4.4,0,8.8,0,13.2
	c0,3.3-1.7,4.7-4.8,4.3c-1.6-0.2-2.6-1.1-2.9-2.7c-0.1-0.7-0.1-1.4-0.1-2.1c0-15,0-30.1,0-45.1c0-0.4,0-0.8,0-1.2
	c-0.1-0.9,0.3-1.3,1.3-1.3c5.5,0,11-0.1,16.6,0.1c8,0.3,16.9,9.1,13.9,20.1c-1,3.8-3.7,6.5-7,8.5C722.7,708.2,722,708.6,721.1,709.1
	z M706.5,694.5c0,2.1,0,4.1,0,6.2c0,1,0.3,1.4,1.4,1.4c2.4-0.1,4.8,0,7.2-0.1c1.4,0,2.7-0.3,4-0.8c2-0.8,3.2-2.2,3.7-4.4
	c1.1-4.7-1.5-8.7-6.3-9.5c-2.9-0.5-5.9-0.2-8.8-0.3c-0.9,0-1.1,0.4-1.1,1.2C706.5,690.3,706.5,692.4,706.5,694.5z"/>
<path class="st0" d="M599.7,704.7c-0.1-5,0.5-9.9,2.2-14.6c0.4-1.2,0.9-2.4,1.5-3.5c3.2-6,8-9.4,15-9.1c7.1,0.3,11.8,4,14.6,10.2
	c3,6.8,3.9,14,3.3,21.3c-0.4,4.3-1.3,8.5-3.1,12.5c-4,9-12.1,11.3-19.5,9.8c-4.2-0.9-7.3-3.5-9.5-7.1c-3-4.8-4.2-10.2-4.6-15.7
	C599.6,707.3,599.7,706,599.7,704.7z M628.2,704.2c-0.1-1.2-0.1-3-0.3-4.8c-0.4-3.4-1-6.8-2.9-9.8c-3.1-5-11.5-5.7-14.6,0.7
	c-0.8,1.6-1.3,3.2-1.7,5c-1.1,5.6-1.1,11.3-0.4,17c0.3,2.1,0.8,4.2,1.8,6.2c1.4,2.8,3.5,4.7,6.9,4.9c3.5,0.2,6.2-1.1,8.1-4.1
	c0.8-1.3,1.4-2.7,1.8-4.2C627.9,711.8,628.1,708.3,628.2,704.2z"/>
<path class="st0" d="M405.6,705.8c0.1-6.2,0.6-11.2,2.4-16c0.8-2.3,2-4.4,3.4-6.3c6.1-8.4,18.1-7.2,23.4-2c1.9,1.9,3.5,4,4.5,6.5
	c4.2,10.3,4.4,20.8,0.9,31.4c-0.5,1.4-1,2.7-1.8,3.9c-4.7,8.3-13,9.4-19.1,7.9c-3.9-1-6.8-3.4-8.9-6.8c-2.4-3.8-3.6-8.1-4.3-12.6
	C405.8,709.5,405.6,707.1,405.6,705.8z M434.3,704.5c-0.1-3.3-0.3-6.8-1.2-10.3c-0.6-2.3-1.6-4.5-3.4-6.2c-3.8-3.6-9.9-2.9-12.7,1.5
	c-1.1,1.8-1.8,3.8-2.2,5.8c-1.1,5.7-1.1,11.4-0.3,17.2c0.3,2.1,0.8,4.1,1.8,6c1.4,2.8,3.5,4.7,6.8,4.9c3.6,0.2,6.4-1.2,8.3-4.3
	c0.8-1.3,1.3-2.7,1.7-4.2C434,711.5,434.2,708.1,434.3,704.5z"/>
<path class="st0" d="M794.4,704.1c0-7.8,0-15.5,0-23.3c0-2,0-2.1,2.1-2.1c6.2,0,12.3,0,18.5,0c3.3,0,6.1,1.1,8.6,3.2
	c6.5,5.5,7.9,15,3.1,21.6c-2.7,3.8-6.4,5.9-11.2,5.9c-3.7,0-7.4,0-11,0c-1.8,0-1.9,0-1.9,1.8c0,5,0,9.9,0,14.9c0,0.4,0,0.8,0,1.2
	c-0.1,3.7-2.8,5.4-6.2,3.8c-1.4-0.6-1.9-1.8-1.9-3.3c0-2.6,0-5.3,0-7.9C794.4,714.7,794.4,709.4,794.4,704.1z M809.2,701.6
	c1.8,0,3.7,0,5.5,0c3.6-0.1,6.1-2.1,6.7-5.3c0.8-4.4-0.7-7.8-4.2-9.2c-0.6-0.2-1.2-0.4-1.9-0.4c-4,0-8,0-12,0
	c-0.9,0-1.2,0.4-1.2,1.3c0,4.2,0,8.3,0,12.5c0,1,0.4,1.2,1.3,1.2C805.4,701.6,807.3,701.6,809.2,701.6z"/>
<path class="st0" d="M506,704c-0.1-4.2,0-8.5,1-12.6c0.1-0.5,0.2-0.9,0.4-1.4c2.9-10.5,11-13.8,20.1-11.8c2.9,0.6,5.1,2.2,6.3,5
	c0.7,1.5,1.5,3,2,4.6c0.9,2.8-0.2,4.7-3.1,5.3c-1.7,0.4-2.9-0.1-3.8-1.8c-0.5-1-0.9-2.1-1.3-3.1c-0.7-1.7-1.9-2.7-3.9-2.5
	c-0.6,0-1.3,0.1-1.9,0c-3.1-0.3-4.8,1.3-5.9,3.9c-0.8,1.9-1.3,4-1.5,6c-0.8,6.3-1.1,12.6,0.2,18.9c0.4,2,1,3.9,2.2,5.5
	c1,1.5,2.3,2.6,4.1,3.2c3.2,1,5.4,0.1,7.1-2.7c0.4-0.6,0.6-1.3,1-1.9c1-1.8,2.2-2.3,4-1.7c2.3,0.7,3.5,2.2,3.3,4.1
	c0,0.3-0.1,0.6-0.2,0.9c-1.8,4.7-5.7,9.7-12.4,9.7c-7.5,0-12.4-3.2-15.2-10.1c-1.5-3.6-2.1-7.4-2.4-11.2
	C505.9,708.2,506,706.1,506,704z"/>
<path class="st0" d="M230.1,698.3c3-5.4,5.9-10.4,8.7-15.4c0.4-0.6,0.7-1.3,1.1-1.9c1.3-2.2,2.8-2.7,5-1.6c2.6,1.2,3.2,3,1.8,5.7
	c-3.7,6.8-7.4,13.6-11.2,20.4c-0.8,1.5-1.2,3-1.2,4.8c0.1,5.8,0.1,11.7,0,17.5c0,2.8-1.2,4-3.9,4.1c-2.8,0.1-4.2-1.2-4.2-4
	c0-6,0-12,0-18c0-1.4-0.3-2.6-1-3.9c-3.7-6.6-7.3-13.3-10.9-20c-0.2-0.4-0.5-0.8-0.7-1.3c-1.4-3,0.6-6,3.9-5.9
	c1.6,0.1,2.6,1.1,3.3,2.4c2.5,4.7,5.1,9.4,7.7,14.1C229,696.2,229.4,697,230.1,698.3z"/>
<path class="st0" d="M137.3,708.3c0,6.3-0.1,12.6,0,18.9c0.1,2.9-0.9,4.8-5,4.3c-1.9-0.2-2.8-1.2-3.1-3.1c-0.1-0.8-0.1-1.6-0.1-2.4
	c0-12,0-24,0-36c0-0.6-0.1-1.1,0-1.7c0.1-1.1-0.5-1.3-1.4-1.3c-2.5,0-5,0-7.4,0c-0.6,0-1.1,0-1.7,0c-3.3-0.1-5.1-3-3.8-6
	c0.5-1,1.3-1.6,2.4-1.8c0.7-0.1,1.4-0.1,2.2-0.1c9.2,0,18.4,0,27.6,0c0.4,0,0.8,0,1.2,0c2.5,0.1,3.7,1.3,3.7,4
	c0,2.6-1.1,3.9-3.7,3.9c-3.1,0.1-6.2,0.1-9.3,0c-1.2,0-1.6,0.4-1.6,1.6C137.3,695.2,137.3,701.8,137.3,708.3z"/>
<path class="st0" d="M469.1,529.4c-52-0.7-97.6-18-136.2-53.1c-32.6-29.6-53.9-68.6-62-111c-12.2-64.7,7.5-130.7,53.4-177.9
	c30.4-31.3,67.2-50.8,110.2-58.4c61.7-10.9,124.6,7.6,170.9,50c0.9,0.8,1.7,1.9,3.2,1.7c0.5-0.1,0.7,0.3,0.7,0.8
	c-0.2,1.3,0.8,2,1.6,2.8c9,8.9,17.1,18.6,24.3,29c17.9,26,29.1,54.6,33.6,85.9c9,62.8-12,126.2-56.9,171
	c-28.7,28.6-62.9,47-102.6,55.3C496.6,528,482.9,529.4,469.1,529.4z M469.2,519.9c104.8,0.2,192.3-84.5,192.2-192.4
	c-0.1-106.6-85.9-191.1-190.4-192.1c-107.2-1-193.5,85.3-194.1,191C276.2,433.6,363,520.1,469.2,519.9z"/>
<path d="M469.2,519.9c-106.2,0.2-193-86.3-192.3-193.5c0.7-105.7,86.9-192,194.1-191c104.4,1,190.3,85.5,190.4,192.1
	C661.5,435.4,573.9,520.1,469.2,519.9z M660.3,327.7c-0.1-106.2-86.4-192-192.8-191.2c-106,0.9-190.4,87.6-189.5,192.7
	c0.9,105.7,87.6,190.9,193.6,189.6C575.1,517.5,660.2,433.4,660.3,327.7z"/>
<path class="st0" d="M660.3,327.7c-0.2,105.7-85.2,189.9-188.7,191.2c-106,1.3-192.8-83.9-193.6-189.6
	c-0.9-105.2,83.6-191.8,189.5-192.7C573.9,135.6,660.2,221.5,660.3,327.7z M350.2,273.9c0,0.7-0.1,1.4-0.1,2.1c0,36.3,0,72.7,0,109
	c0,0.6,0.1,1.1,0.1,1.7c0,0.2-0.1,0.5-0.1,0.7c0,25.3,0,50.7,0,76c0,1.2,0.4,1.9,1.3,2.6c11,9.3,22.8,17.2,35.6,23.7
	c0.5,0.3,1,0.8,1.8,0.3c0-0.4,0-0.8,0-1.2c0-17.7,0-35.3,0-53c0-0.6-0.1-1.3-0.1-1.9c0-0.8,0.1-1.6,0.1-2.4c0-67.5,0-135,0-202.6
	c0-0.9,0.1-1.8-0.2-2.6c0.1-0.6,0.2-1.3,0.2-1.9c0-19.3,0-38.7,0-58c0-0.5,0.2-1.1-0.2-1.5c-0.2,0-0.4-0.1-0.5,0
	c-0.5,0.2-1,0.5-1.5,0.7c-12.3,6.3-23.8,14-34.5,22.9c-1.4,1.2-2,2.4-2,4.2c0.1,26.1,0,52.3,0,78.4
	C350.1,272.2,350.2,273,350.2,273.9z M544.4,222.6c0,0.8-0.1,1.6-0.1,2.4c0,70.1,0,140.2,0,210.3c0,0.9,0.1,1.7,0.1,2.6
	c-0.1,0.6-0.1,1.3-0.1,1.9c0,17,0,34.1,0,51.1c0,0.6-0.2,1.3,0.2,1.9c0.9,0.1,1.6-0.5,2.4-0.9c14.8-7,28.3-15.8,40.7-26.4
	c1.4-1.2,1.9-2.3,1.9-4.1c-0.1-24.9,0-49.9,0-74.8c0-0.9-0.1-1.8-0.1-2.6c0-0.6,0.1-1.3,0.1-1.9c0-34.7,0-69.5,0-104.2
	c0-0.5-0.1-1-0.1-1.4c0-0.3,0.1-0.6,0.1-1c0-27.5,0-55,0-82.5c0-1.2-0.4-1.9-1.3-2.7c-12.9-11.2-27.1-20.3-42.5-27.6
	c-0.4-0.2-0.8-0.5-1.4,0c0,0.4,0,1,0,1.5c0,18.8,0,37.6,0,56.4C544.2,221.3,544.3,222,544.4,222.6z M524.2,449.9
	c0-0.6,0.1-1.3,0.1-1.9c0-78.4,0-156.7,0-235.1c0-0.7-0.1-1.4-0.1-2.1c0-0.2,0.1-0.5,0.1-0.7c0-18,0-36,0-54c0-1.3-0.5-1.8-1.7-2.1
	c-13.4-4.1-27-6.6-40.9-7.6c-3-0.2-2.6-0.3-2.6,2.4c0,16,0,32,0,48c0,0.8,0.1,1.6,0.1,2.4c0,0.9-0.1,1.8-0.1,2.6
	c0,85.5,0,171.1,0,256.6c0,1,0.1,1.9,0.1,2.9c0,0.2-0.1,0.3-0.1,0.5c0,15.3,0,30.5,0,45.8c0,1.6,0.1,1.6,1.9,1.5
	c13.8-0.9,27.4-3.3,40.7-7.4c3.1-0.9,2.5-0.4,2.5-3.3c0-15.2,0-30.4,0-45.6C524.3,451.8,524.2,450.8,524.2,449.9z M459,199.2
	c0.3-3.2,0.1-6.4,0.1-9.6c0-13.8,0-27.5,0-41.3c0-2.2,0.1-2.1-2.1-2c-0.4,0-0.8,0-1.2,0.1c-11.2,0.9-22.2,2.6-33.1,5.5
	c-4.2,1.1-8.3,2.4-12.4,3.7c-1.3,0.4-1.9,1.1-1.6,2.4c0.1,0.3,0,0.6,0,1c0,17.3,0,34.6,0,51.8c0,0.8,0.1,1.6,0.1,2.4
	c0,0.7-0.1,1.4-0.1,2.1c0,76.5,0,153,0,229.5c0,0.8-0.1,1.6,0.1,2.4c0,0.8-0.1,1.6-0.1,2.4c0,15.7,0,31.3,0,47c0,0.4,0,0.8,0,1.2
	c-0.1,1,0.3,1.5,1.2,1.7c0.5,0.1,1.1,0.4,1.6,0.5c14.8,4.9,29.9,7.9,45.5,8.9c2.1,0.1,2.1,0.2,2.1-2c0-0.2,0-0.3,0-0.5
	c0-14.3,0-28.6,0-42.9c0-0.8-0.1-1.6-0.1-2.4c0-0.9,0.1-1.7,0.1-2.6c0-85.6,0-171.2,0-256.8C459.1,201,459,200.1,459,199.2z
	 M330,211.4c-16.1,18.7-27.7,39.8-34.7,63.3c-11.1,37.1-10.6,74.1,1.6,110.9c7.1,21.6,18.2,41,33.1,58.3
	C330,366.4,330,288.9,330,211.4z M609.5,442.4c0.2,0.1,0.3,0.1,0.5,0.2c18-22.2,30.4-47.2,36.5-75.1c7.7-34.9,5.4-69.3-6.9-102.9
	c-7-19-16.9-36.2-30.1-51.6C609.5,289.4,609.5,365.9,609.5,442.4z"/>
<path class="st1" d="M408.9,447.2c-0.3-0.8-0.1-1.6-0.1-2.4c0-76.5,0-153,0-229.5c0-0.7,0.1-1.4,0.1-2.1c0.6-0.2,1.2-0.4,1.8-0.7
	c15.3-7.6,31.4-12,48.4-13.3c0,0.9,0.1,1.7,0.1,2.6c0,85.6,0,171.2,0,256.8c0,0.9-0.1,1.7-0.1,2.6c-11.5-0.8-22.7-3.2-33.6-7
	C419.7,452.3,414.3,449.7,408.9,447.2z"/>
<path class="st1" d="M479.2,461.3c0-1-0.1-1.9-0.1-2.9c0-85.5,0-171.1,0-256.6c0-0.9,0.1-1.8,0.1-2.6c0.9,0.1,1.7,0.2,2.6,0.3
	c12.8,1.2,25.1,4.2,37,9.1c1.8,0.7,3.5,1.4,5.3,2.2c0,0.7,0.1,1.4,0.1,2.1c0,78.4,0,156.7,0,235.1c0,0.6,0,1.3-0.1,1.9
	c-1,0.2-2,0.7-2.9,1.1C507.8,456.7,493.8,460.2,479.2,461.3z"/>
<path class="st1" d="M589.3,276.5c0,0.5,0.1,1,0.1,1.4c0,34.7,0,69.5,0,104.2c0,0.6-0.1,1.3-0.1,1.9c-0.4,0.8-0.8,1.5-1.2,2.3
	c-6.9,14.5-16.1,27.3-27.6,38.5c-5,4.8-10.2,9.4-16.1,13.1c0-0.9-0.1-1.7-0.1-2.6c0-70.1,0-140.2,0-210.3c0-0.8,0.1-1.6,0.1-2.4
	c0.7,0.4,1.4,0.8,2,1.3c16.4,11.9,29.3,26.8,38.9,44.7C586.6,271.2,588,273.8,589.3,276.5z"/>
<path class="st1" d="M350.2,386.7c0-0.6-0.1-1.1-0.1-1.7c0-36.3,0-72.7,0-109c0-0.7,0.1-1.4,0.1-2.1c0.5-0.9,1-1.8,1.5-2.7
	c6.1-12.1,13.8-23,23.3-32.6c4.2-4.3,8.6-8.5,13.6-12c0.3,0.9,0.2,1.7,0.2,2.6c0,67.5,0,135,0,202.6c0,0.8-0.1,1.6-0.1,2.4
	c-0.1-0.1-0.3-0.1-0.4-0.2c-13.6-10.6-24.6-23.4-33.2-38.3C353.4,392.6,351.8,389.7,350.2,386.7z"/>
</svg>
